<svg width="17" height="14" fill="none" xmlns="http://www.w3.org/2000/svg"><path fill-rule="evenodd" clip-rule="evenodd" d="M16.51 1.63a6.641 6.641 0 01-1.946.548A3.477 3.477 0 0016.053.253a6.674 6.674 0 01-2.15.844A3.34 3.34 0 0011.43 0C9.56 0 8.043 1.558 8.043 3.48c0 .273.03.538.087.793C5.315 4.127 2.82 2.74 1.148.637A3.536 3.536 0 00.69 2.386c0 1.207.598 2.272 1.506 2.896a3.308 3.308 0 01-1.534-.436v.044c0 1.687 1.17 3.093 2.717 3.413a3.3 3.3 0 01-1.528.06c.43 1.382 1.682 2.388 3.164 2.416A6.686 6.686 0 010 12.22a9.402 9.402 0 005.192 1.564c6.23 0 9.637-5.303 9.637-9.9 0-.152-.003-.302-.01-.451A6.978 6.978 0 0016.51 1.63" fill="#6188FF"/></svg>