<svg width="17" height="14" viewBox="0 0 17 14" fill="none" xmlns="http://www.w3.org/2000/svg">
<path fill-rule="evenodd" clip-rule="evenodd" d="M16.5091 1.62981C15.9016 1.90701 15.2489 2.09357 14.564 2.17837C15.2631 1.74747 15.8002 1.06534 16.053 0.252819C15.3985 0.651657 14.6736 0.941312 13.9021 1.0974C13.2845 0.421364 12.4039 0 11.4298 0C9.5595 0 8.04263 1.55825 8.04263 3.47957C8.04263 3.75253 8.0723 4.01807 8.13034 4.27274C5.31485 4.12699 2.81872 2.74099 1.14836 0.636817C0.85685 1.15093 0.689814 1.74826 0.689814 2.38588C0.689814 3.59299 1.28779 4.65793 2.19636 5.28243C1.64173 5.26388 1.11908 5.10752 0.662469 4.84649V4.89021C0.662469 6.57699 1.83108 7.98287 3.3789 8.30287C3.09513 8.38237 2.79589 8.42477 2.48813 8.42477C2.26989 8.42477 2.05732 8.40357 1.85094 8.36249C2.28175 9.74531 3.53291 10.7513 5.01495 10.7794C3.85563 11.7122 2.395 12.2687 0.807449 12.2687C0.534 12.2687 0.264936 12.2528 0 12.2202C1.49881 13.2077 3.27958 13.7838 5.19231 13.7838C11.4223 13.7838 14.8295 8.48095 14.8295 3.88305C14.8295 3.73199 14.8261 3.58226 14.8197 3.43253C15.4816 2.94226 16.0561 2.32877 16.5101 1.63047" fill="#6188FF"/>
</svg>
